PathFileType	4	(X/Y/Z)	SUBJ62_1_walk_RCNL2025.trc
DataRate	CameraRate	NumFrames	NumMarkers	Units	OrigDataRate	OrigDataStartFrame	OrigNumFrames
100	100	6	25	mm	100	1	315
Frame#	Time	R_Shoulder			L_Shoulder			C7			J_Notch			R_Elbow			L_Elbow			R_Wrist			L_Wrist			R_Asis			L_Asis			Sacral			Thoracic			Sternum			R_Thigh_Lateral			R_Knee_Lateral			R_Shank_Lateral			R_Ankle_Lateral			R_Heel			R_Toe			L_Thigh_Lateral			L_Knee_Lateral			L_Shank_Lateral			L_Ankle_Lateral			L_Heel			L_Toe		
		X1	Y1	Z1	X2	Y2	Z2	X3	Y3	Z3	X4	Y4	Z4	X5	Y5	Z5	X6	Y6	Z6	X7	Y7	Z7	X8	Y8	Z8	X9	Y9	Z9	X10	Y10	Z10	X11	Y11	Z11	X12	Y12	Z12	X13	Y13	Z13	X14	Y14	Z14	X15	Y15	Z15	X16	Y16	Z16	X17	Y17	Z17	X18	Y18	Z18	X19	Y19	Z19	X20	Y20	Z20	X21	Y21	Z21	X22	Y22	Z22	X23	Y23	Z23	X24	Y24	Z24	X25	Y25	Z25
1	0.00000000	-1164.934814	1261.151245	-90.986374	-1170.734131	1281.302002	-431.820740	-1235.878296	1336.913696	-264.787628	-1108.505371	1248.165161	-270.014862	-1296.677856	986.566895	-42.063416	-1090.594849	995.836548	-514.436035	-1286.894775	764.888947	-38.512556	-906.655731	883.318024	-506.881409	-1111.155640	859.674316	-133.913971	-1121.238037	853.569458	-393.496521	-1291.139648	856.754517	-255.959030	-1296.601685	1140.893921	-264.309021	-1092.740845	1047.735840	-271.095551	-1052.732788	479.019348	-59.087196	-1017.229675	434.736816	-131.736526	-970.350708	268.305817	-89.618446	-927.019775	75.592827	-158.336960	-970.618042	41.934284	-199.848450	-822.411682	90.608261	-171.922455	-1272.739502	474.329681	-430.727448	-1294.485596	414.224030	-376.382385	-1324.151611	219.747894	-404.846375	-1363.155396	57.145378	-334.651276	-1415.515869	60.123528	-285.094086	-1258.583496	39.598297	-332.754761
2	0.01000000	-1153.687256	1259.061646	-89.801315	-1160.484253	1279.367310	-430.636414	-1225.062622	1335.055542	-263.440887	-1097.802246	1246.262207	-269.123993	-1287.020996	985.170837	-40.990154	-1077.500122	994.489075	-512.716614	-1278.259644	763.414368	-37.675186	-891.741455	886.168793	-505.564194	-1099.508057	857.437073	-133.578430	-1111.863403	851.997742	-393.605957	-1280.293213	854.796204	-254.058136	-1285.785767	1139.021484	-262.653229	-1082.069214	1045.767578	-270.472046	-1043.899780	475.454041	-58.233089	-1006.859070	432.848297	-130.690063	-955.185608	267.979919	-88.016594	-906.034363	75.842201	-156.181656	-949.287720	41.269249	-197.269287	-801.806885	93.000595	-170.123993	-1265.899536	473.782532	-429.857605	-1288.191650	413.963440	-375.468506	-1320.786133	220.079681	-404.093536	-1362.728271	58.195358	-334.327484	-1415.048706	61.986427	-284.783386	-1258.518677	39.635025	-332.681458
3	0.02000000	-1142.358521	1257.119995	-88.480881	-1150.173706	1277.537231	-429.345917	-1214.163940	1333.324097	-261.960693	-1086.698975	1244.429932	-268.091766	-1276.838989	983.716980	-39.796902	-1064.645142	993.093262	-510.808746	-1268.944275	761.920258	-36.723351	-877.432983	888.613312	-504.153519	-1087.804932	855.266541	-133.132523	-1102.260132	850.516968	-393.577667	-1269.312256	852.972168	-252.100891	-1274.880371	1137.264282	-260.870453	-1071.287354	1043.941895	-269.711243	-1034.464478	472.582062	-57.359703	-996.322205	431.166443	-129.598175	-941.148743	267.511383	-86.406235	-887.617615	75.893860	-154.085464	-930.641785	40.764111	-194.855087	-783.676453	94.405579	-168.254089	-1258.739014	473.337036	-428.932343	-1281.483643	413.757935	-374.503845	-1317.175049	220.557251	-403.370667	-1362.225952	59.466908	-334.058136	-1414.580811	64.217758	-284.632324	-1258.426514	39.692329	-332.590271
4	0.03000000	-1130.941772	1255.360474	-87.023354	-1139.777222	1275.859131	-427.938751	-1203.178467	1331.750122	-260.343994	-1075.377563	1242.734985	-266.914978	-1266.121704	982.236206	-38.477024	-1052.077637	991.731445	-508.762207	-1258.921143	760.424286	-35.652266	-863.748077	890.626587	-502.665649	-1076.045654	853.251526	-132.560501	-1092.360840	849.144348	-393.356873	-1258.181763	851.324768	-250.126541	-1263.879883	1135.660767	-258.978455	-1060.363647	1042.299194	-268.812408	-1024.435303	470.551636	-56.435333	-985.635803	429.682678	-128.451614	-928.215820	266.823669	-84.856834	-871.863098	75.638618	-152.136856	-914.738281	40.300716	-192.741974	-768.057922	94.684158	-166.333374	-1251.319580	473.053955	-427.950317	-1274.388550	413.645477	-373.506165	-1313.338013	221.219742	-402.727448	-1361.620728	60.994415	-333.870270	-1414.133667	66.896828	-284.751007	-1258.290039	39.769806	-332.486450
5	0.04000000	-1119.427734	1253.810303	-85.433601	-1129.274658	1274.381836	-426.405060	-1192.101807	1330.366821	-258.591125	-1063.948975	1241.233643	-265.591370	-1254.870972	980.760437	-37.025337	-1039.857544	990.498230	-506.652924	-1248.168945	758.946228	-34.452792	-850.704620	892.183960	-501.117172	-1064.235107	851.481812	-131.843018	-1082.113159	847.905823	-392.899689	-1246.894775	849.894409	-248.171066	-1252.780151	1134.251709	-256.996490	-1049.277588	1040.878540	-267.771027	-1013.992615	469.337738	-55.438194	-974.841919	428.382935	-127.234711	-916.374634	265.880402	-83.421120	-858.775696	75.028908	-150.403030	-901.558655	39.831375	-191.027985	-754.927551	93.771805	-164.363770	-1243.673462	472.985565	-426.903473	-1266.907104	413.658569	-372.499084	-1309.260986	222.096298	-402.205597	-1360.877686	62.809109	-333.784210	-1413.698364	70.093246	-285.223602	-1258.088135	39.865597	-332.375336
6	0.05000000	-1107.804688	1252.491577	-83.723541	-1118.651489	1273.154785	-424.738190	-1180.928711	1329.213989	-256.706024	-1052.468750	1239.976929	-264.121826	-1243.096191	979.320374	-35.441929	-1028.072388	989.487122	-504.592896	-1236.674377	757.509583	-33.112935	-838.319458	893.262848	-499.523315	-1052.389160	850.041321	-130.955093	-1071.482544	846.833862	-392.178314	-1235.457764	848.722107	-246.264374	-1241.580322	1133.081299	-254.942947	-1038.030151	1039.718140	-266.574402	-1003.383606	468.774933	-54.357616	-963.991699	427.269287	-125.929092	-905.632507	264.691132	-82.125023	-848.253845	74.083977	-148.928055	-890.994507	39.383926	-189.764832	-744.184998	91.688652	-162.340378	-1235.785156	473.165680	-425.783539	-1259.003052	413.817963	-371.507874	-1304.886230	223.200821	-401.824646	-1359.953979	64.944519	-333.811859	-1413.210083	73.849190	-286.054596	-1257.797241	39.976452	-332.261810
